<svg id="Layer_1" data-name="Layer 1" xmlns="http://www.w3.org/2000/svg" viewBox="0 0 32 32"><defs><style>.cls-1{fill:#5513fe;}</style></defs><title>favicon</title><rect class="cls-1" x="9.98" y="9.65" width="2.7" height="2.7"/><rect class="cls-1" x="19.31" y="9.65" width="2.7" height="2.7"/><path class="cls-1" d="M16,3A13,13,0,1,1,3,16,13,13,0,0,1,16,3m0-2A15,15,0,1,0,31,16,15,15,0,0,0,16,1Z"/><polygon class="cls-1" points="10.72 23.09 9.54 21.04 8.36 19 10.72 19 13.08 19 11.9 21.04 10.72 23.09"/><polygon class="cls-1" points="14.24 23.09 13.06 21.04 11.88 19 14.24 19 16.6 19 15.42 21.04 14.24 23.09"/><polygon class="cls-1" points="17.76 23.09 16.58 21.04 15.4 19 17.76 19 20.12 19 18.94 21.04 17.76 23.09"/><polygon class="cls-1" points="21.28 23.09 20.1 21.04 18.92 19 21.28 19 23.64 19 22.46 21.04 21.28 23.09"/></svg>