<?xml version="1.0" encoding="utf-8"?>
<!-- Generator: Adobe Illustrator 18.1.1, SVG Export Plug-In . SVG Version: 6.00 Build 0)  -->
<!DOCTYPE svg PUBLIC "-//W3C//DTD SVG 1.1//EN" "http://www.w3.org/Graphics/SVG/1.1/DTD/svg11.dtd">
<svg version="1.1" id="Layer_1" xmlns="http://www.w3.org/2000/svg" xmlns:xlink="http://www.w3.org/1999/xlink" x="0px" y="0px"
	 viewBox="0 0 553 294" enable-background="new 0 0 553 294" xml:space="preserve">
<g>
	<path d="M0.3,216.6V78.4c0-44.7,21.1-77.2,71.7-77.2c53.1,0,67.9,29.5,67.9,71.7v33.7H96V69.1c0-17.7-5.9-27.8-23.2-27.8
		S48.3,53.5,48.3,70.8v153.5c0,17.3,7.2,29.5,24.5,29.5s23.2-11,23.2-27.8v-52.7h43.9v49.3c0,40.9-16.9,71.3-67.9,71.3
		C21.3,293.8,0.3,260.9,0.3,216.6z"/>
	<path d="M151.5,290.4l54-285.9h54.8l54.4,285.9h-49.3l-8.9-52.3h-51l-8.4,52.3H151.5z M211.8,199.8h38.4l-19-114.7h-0.4
		L211.8,199.8z"/>
	<path d="M387,159.3v131.1h-48.1V4.6h70c48.5,0,66.2,24,66.2,64.1v36.7c0,30.8-11,48.9-38.4,55.2l46,129.9h-50.6L387,159.3z
		 M387,43.8v89h16c16.4,0,23.6-8.4,23.6-23.6V67c0-15.6-7.2-23.2-23.6-23.2H387z"/>
	<path d="M506.3,4.6h48.1v285.9h-48.1V4.6z"/>
</g>
</svg>
