<?xml version="1.0" encoding="utf-8"?>
<!-- Generator: Adobe Illustrator 22.0.1, SVG Export Plug-In . SVG Version: 6.00 Build 0)  -->
<!DOCTYPE svg PUBLIC "-//W3C//DTD SVG 1.1//EN" "http://www.w3.org/Graphics/SVG/1.1/DTD/svg11.dtd">
<svg version="1.1" id="LinkedIn" xmlns="http://www.w3.org/2000/svg" xmlns:xlink="http://www.w3.org/1999/xlink" x="0px" y="0px"
	 viewBox="0 0 600 600" style="enable-background:new 0 0 600 600;" xml:space="preserve">
<path d="M595.2,179c-0.5-24.6-5.1-48.8-13.8-71.9c-7.4-19.8-19.1-37.6-34.1-52.4c-14.8-15.1-32.7-26.7-52.4-34.1
	c-23-8.6-47.3-13.3-71.9-13.8C391.5,5.3,381.4,5,301,5s-90.5,0.3-122,1.8c-24.6,0.5-48.8,5.1-71.9,13.8C87.4,28,69.5,39.6,54.7,54.7
	C39.6,69.5,28,87.4,20.5,107.1c-8.6,23-13.3,47.3-13.8,71.9C5.3,210.5,5,220.6,5,301s0.3,90.5,1.8,122c0.5,24.6,5.1,48.8,13.8,71.9
	c7.4,19.8,19.1,37.6,34.1,52.4c14.8,15.1,32.7,26.7,52.4,34.1c23,8.6,47.3,13.3,71.9,13.8c31.6,1.4,41.7,1.8,122,1.8
	s90.5-0.3,122-1.8c24.6-0.5,48.8-5.1,71.9-13.8c39.8-15.4,71.2-46.8,86.6-86.6c8.6-23,13.3-47.3,13.8-71.9
	c1.4-31.6,1.8-41.7,1.8-122S596.7,210.5,595.2,179z M541.9,420.6c-0.2,18.8-3.7,37.4-10.2,55c-10,25.8-30.4,46.2-56.2,56.2
	c-17.6,6.5-36.2,10-55,10.2c-31.2,1.4-40.6,1.7-119.6,1.7s-88.4-0.3-119.6-1.7c-18.8-0.2-37.4-3.7-55-10.2
	c-12.9-4.7-24.5-12.3-34-22.1c-9.8-9.5-17.4-21.2-22.1-34c-6.5-17.6-10-36.2-10.2-55c-1.4-31.2-1.7-40.6-1.7-119.6
	s0.3-88.4,1.7-119.6c0.2-18.8,3.7-37.4,10.2-55c4.7-12.9,12.3-24.5,22.1-34c9.5-9.8,21.2-17.4,34-22.1c17.6-6.5,36.2-10,55-10.2
	c31.2-1.4,40.6-1.7,119.6-1.7s88.4,0.3,119.6,1.7c18.8,0.2,37.4,3.7,55,10.2c12.9,4.7,24.5,12.3,34,22.1c9.8,9.5,17.4,21.2,22.1,34
	c6.5,17.6,10,36.2,10.2,55c1.4,31.2,1.7,40.6,1.7,119.6S543.4,389.4,541.9,420.6z M301,149c-83.9,0-152,68.1-152,152
	s68.1,152,152,152s152-68.1,152-152C453,217.1,384.9,149,301,149z M301,399.7c-54.5,0-98.7-44.2-98.7-98.7s44.2-98.7,98.7-98.7
	s98.7,44.2,98.7,98.7S355.5,399.7,301,399.7z M494.5,143c0,19.6-15.9,35.5-35.5,35.5c-19.6,0-35.5-15.9-35.5-35.5
	c0-19.6,15.9-35.5,35.5-35.5l0,0C478.6,107.5,494.5,123.4,494.5,143z"/>
</svg>
