<?xml version="1.0" encoding="utf-8"?>
<!-- Generator: Adobe Illustrator 18.1.1, SVG Export Plug-In . SVG Version: 6.00 Build 0)  -->
<!DOCTYPE svg PUBLIC "-//W3C//DTD SVG 1.1//EN" "http://www.w3.org/Graphics/SVG/1.1/DTD/svg11.dtd">
<svg version="1.1" id="LinkedIn" xmlns="http://www.w3.org/2000/svg" xmlns:xlink="http://www.w3.org/1999/xlink" x="0px" y="0px"
	 viewBox="0 100 600 600" enable-background="new 0 100 600 600" xml:space="preserve">
<path d="M3.9,268.4h131.6v427.7H3.9V268.4z M69.7,103.9c-39.5,0-65.8,32.9-65.8,69.1c0,32.9,26.3,62.5,65.8,62.5
	c42.8,0,65.8-29.6,65.8-65.8S109.2,103.9,69.7,103.9z M451.3,275c-69.1,0-108.6,39.5-125,65.8H323l-6.6-55.9H198
	c0,36.2,3.3,79,3.3,128.3v282.9h131.6V462.5c0-13.2,0-23,3.3-32.9c9.9-23,26.3-52.6,62.5-52.6c46.1,0,65.8,39.5,65.8,92.1v227h131.6
	V452.6C596.1,330.9,533.6,275,451.3,275z"/>
</svg>
