<?xml version="1.0" encoding="utf-8"?>
<!-- Generator: Adobe Illustrator 18.1.1, SVG Export Plug-In . SVG Version: 6.00 Build 0)  -->
<!DOCTYPE svg PUBLIC "-//W3C//DTD SVG 1.1//EN" "http://www.w3.org/Graphics/SVG/1.1/DTD/svg11.dtd">
<svg version="1.1" id="Pinterest" xmlns="http://www.w3.org/2000/svg" xmlns:xlink="http://www.w3.org/1999/xlink" x="0px" y="0px"
	 viewBox="0 100 600 600" enable-background="new 0 100 600 600" xml:space="preserve">
<path d="M258.5,496.8c-15.8,82.6-35,161.8-92,203.2c-17.6-124.9,25.8-218.6,46-318.1c-34.4-57.9,4.1-174.4,76.6-145.7
	c89.2,35.3-77.3,215.2,34.5,237.7c116.7,23.4,164.4-202.5,92-276c-104.5-106.1-304.4-2.5-279.8,149.4c6,37.1,44.3,48.4,15.3,99.7
	c-66.9-14.8-86.9-67.6-84.3-138C71,193.8,170.3,113.2,270,102c126-14.1,244.3,46.3,260.7,164.8C549,400.7,473.8,545.6,339,535.2
	C302.4,532.3,287.1,514.2,258.5,496.8z"/>
</svg>
